<?xml version="1.0" standalone="no"?>
<!DOCTYPE svg PUBLIC "-//W3C//DTD SVG 20010904//EN"
 "http://www.w3.org/TR/2001/REC-SVG-20010904/DTD/svg10.dtd">
<svg version="1.0" xmlns="http://www.w3.org/2000/svg"
 width="700.000000pt" height="700.000000pt" viewBox="0 0 700.000000 700.000000"
 preserveAspectRatio="xMidYMid meet">
<metadata>
Created by potrace 1.14, written by Peter Selinger 2001-2017
</metadata>
<g transform="translate(0.000000,700.000000) scale(0.100000,-0.100000)"
fill="#000000" stroke="none">
<path d="M4895 6983 c-38 -20 -75 -62 -77 -88 -11 -134 34 -177 191 -185 l95
-5 1 -90 c1 -63 6 -99 18 -122 18 -33 59 -67 92 -76 11 -2 -9 -6 -45 -7 -67
-2 -82 -3 -164 -14 -298 -39 -623 -182 -866 -381 -71 -58 -192 -181 -256 -260
-52 -63 -152 -216 -181 -275 -97 -199 -158 -379 -178 -530 -3 -25 -9 -58 -11
-75 -20 -110 -7 -424 22 -555 3 -14 8 -38 10 -55 10 -51 82 -260 116 -331 138
-295 354 -546 627 -728 159 -106 403 -211 576 -247 33 -7 62 -13 65 -14 8 -2
100 -14 160 -21 100 -12 283 -6 430 12 75 10 264 61 362 99 164 63 326 158
473 276 78 63 215 202 261 264 16 22 31 42 35 45 9 8 86 123 110 166 123 216
204 463 227 689 15 158 5 389 -24 533 -107 532 -461 990 -949 1228 -108 53
-287 117 -375 134 -25 5 -54 11 -66 14 -56 12 -166 23 -264 27 -25 1 -36 4
-25 6 75 19 113 90 111 210 l-1 82 89 0 c103 1 150 19 179 69 29 50 31 88 6
139 -39 80 -50 83 -424 82 -275 0 -324 -2 -350 -16z m493 -807 c11 -18 9 -158
-4 -208 -40 -157 -182 -182 -252 -46 -20 39 -25 65 -28 152 -4 123 -19 113
159 113 75 0 120 -4 125 -11z m-72 -652 c18 -9 44 -32 56 -52 22 -37 23 -40
23 -432 1 -233 -3 -407 -9 -425 -6 -18 -130 -150 -326 -346 -342 -342 -339
-341 -427 -324 -45 8 -98 60 -107 106 -15 77 -3 94 297 393 l280 281 1 355 c1
350 1 356 24 391 39 64 118 86 188 53z m-1362 -725 c91 -23 144 -96 122 -168
-21 -70 -105 -107 -248 -110 l-98 -2 -1 63 c-1 67 -1 143 0 196 l1 32 91 0
c49 0 110 -5 133 -11z m2817 -49 c1 -33 2 -76 2 -95 0 -19 -1 -58 -2 -86 l-1
-50 -91 2 c-94 2 -141 12 -195 41 -108 58 -77 192 54 232 26 8 89 15 140 15
l92 1 1 -60z m-1456 -1274 c54 -42 76 -104 79 -222 3 -91 1 -103 -14 -107 -22
-6 -251 -6 -266 0 -7 3 -10 39 -9 107 2 86 7 112 27 152 44 88 121 117 183 70z"/>
<path d="M2155 5236 c-16 -7 -38 -22 -48 -33 -10 -12 -60 -125 -112 -253 -51
-127 -95 -233 -97 -235 -2 -2 -39 -17 -83 -34 -44 -18 -96 -40 -115 -49 l-35
-17 -229 99 c-127 54 -244 99 -260 100 -17 1 -45 -4 -63 -11 -18 -7 -166 -147
-345 -325 -332 -332 -343 -345 -327 -418 5 -19 50 -133 102 -254 92 -214 94
-219 79 -249 -8 -17 -31 -70 -51 -119 l-36 -88 -232 -93 c-128 -51 -242 -102
-254 -113 -46 -40 -47 -54 -47 -518 1 -292 5 -449 12 -468 6 -16 22 -39 36
-52 14 -13 129 -65 257 -115 l231 -92 23 -62 c12 -34 33 -83 46 -109 12 -26
23 -55 23 -63 0 -9 -43 -118 -96 -243 -97 -226 -106 -260 -85 -315 6 -15 152
-168 325 -341 242 -242 323 -317 350 -324 38 -11 81 -4 136 20 19 9 118 51
218 93 l184 78 51 -22 c29 -12 82 -34 119 -49 68 -27 68 -27 94 -92 34 -83 45
-110 55 -135 5 -11 31 -76 59 -145 28 -68 58 -133 68 -143 40 -46 57 -47 525
-47 l444 0 39 26 c21 15 40 28 42 29 2 2 45 107 96 234 51 128 97 236 102 240
10 10 226 101 238 101 7 0 48 -17 256 -107 205 -89 202 -88 274 -84 25 1 83
54 343 313 330 329 361 368 348 430 -6 29 -85 225 -134 333 -58 127 -64 146
-53 168 6 12 25 56 42 97 17 41 36 86 43 99 9 18 58 42 222 107 243 97 263
107 290 143 18 24 20 44 23 259 2 127 -1 232 -5 233 -4 0 -37 2 -73 4 -99 5
-211 17 -267 29 -15 3 -44 8 -63 11 -81 13 -282 76 -390 122 -60 26 -214 105
-242 124 -14 11 -29 19 -32 19 -11 0 -191 133 -252 185 -123 106 -257 253
-334 365 -13 19 -27 37 -30 40 -3 3 -21 32 -41 65 -209 345 -307 687 -307
1070 0 83 4 182 9 220 5 39 11 83 13 99 3 31 -52 181 -82 222 -38 52 -57 54
-530 54 -340 -1 -444 -4 -467 -14z m666 -1462 c310 -56 580 -227 762 -482 77
-108 167 -313 183 -418 3 -22 10 -59 15 -84 11 -48 13 -236 3 -310 -53 -427
-354 -802 -759 -950 -128 -47 -241 -67 -384 -68 -237 -3 -450 58 -647 184 -62
40 -177 135 -210 174 -12 14 -32 36 -44 50 -175 196 -277 474 -278 753 0 320
117 599 347 827 174 172 356 269 596 319 108 23 306 25 416 5z"/>
</g>
</svg>
